<?xml version="1.0" encoding="utf-8"?>

<!DOCTYPE svg PUBLIC "-//W3C//DTD SVG 1.1//EN" "http://www.w3.org/Graphics/SVG/1.1/DTD/svg11.dtd">
<svg version="1.1" id="Layer_1" xmlns="http://www.w3.org/2000/svg" xmlns:xlink="http://www.w3.org/1999/xlink" x="0px" y="0px"
	 viewBox="0 0 1240 1704" enable-background="new 0 0 1240 1704" xml:space="preserve">
<g>
	<path d="M1074.844,1652c-125.987,0-251.973,0-377.96,0c0.354-2.099-0.595-4.051-0.677-6.121
		c-1.093-27.582,8.318-59.615,3.793-64.349c-2.703-2.828,2.122-1.417,2.512-7.191c40.163-594.721,29.935-509.605-35.111-434.307
		c-10.27,11.889-28.435,26.215-36.298,35.303c-9.229,10.667-20.068,12.32-30.825,6.309c-23.951-13.385-30.917-11.316-47.66-32.138
		c-13.494-16.781-25.281-23.923-31.701-32.33c-0.764-1-17.674-20.913-18.198-8.836c-1.857,42.764-39.975,234.632-42.82,237.576
		c-0.967,1-7.191,12.922-22.189,20.638c-3.403,1.751-19.595,16.079-23.319,16.961c-7.332,1.737-17.834,12.743-20.438,13.324
		c-4.066,0.907-7.782,3.357-17.862,17.326c-4.805,6.66-0.869,10.744-0.927,15.209c-0.052,3.983-2.254,1.137-5.28,4.453
		c-12.484,13.683,3.742,3.457-1.901,45.186c-0.862,6.378,3.563,6.905,15.987,11.063c9.711,3.25,11.798,38.795,11.545,46.943
		c-0.912,29.332,12.99,53.636,10.894,94.211c-0.379,7.335,1.228,14.181,4.274,20.771c-76.951,0-153.903,0-230.854,0
		c2.013-3.537-0.88-2.514-7.874-16.842c-49.495-101.4-64.371-86.168-102.215-195.603c-20.195-58.395,12.583-118.851,30.378-186.358
		c4.573-17.348-6.149-24.287-0.137-43.283c3.113-9.836,15.037-19.371,2.709-27.198c-7.186-4.565,3.07,2.983,59.99-138.238
		c8.499-21.085,6.631-57.309,12.251-70.481c0,0,4.606-37.519,25.508-102.413c35.499-110.21,45.743-94.881,63.333-123.585
		c3.762-6.14,20.763-21.273,22.478-22.512c28.021-20.25,28.057-12.885,31.643-20.182c8.773-17.852,20.664-12.689,24.893-16.692
		c9.234-8.74,5.388-5.877,29.974-17.306c6.099-2.835,15.61,6.083,16.706,7.697c2.863,4.216,5.445-2.422,7.178-7.214
		c2.449-6.774-5.06-4.799-3.623-10.071c12.355-45.342,5.162-58.417-1.461-71.632C365.958,539,458.957,461.943,495.797,470.113
		c1.314,0.291,2.849,0.352,3.934-0.287c7.344-4.328,19.191-3.886,32.444-3.735c-1.584,1.957-3.719,0.344-5.151,1.51
		c0.713,0.983,1.682,1.007,2.669,1.024c15.527,0.278,38.88,1.637,50.637,13.409c6.389,6.397,6.034,8.054,10.948,8.837
		c14.773,2.353,15.424,16.116,35.73,23.939c2.361,0.91,3.866,4.159,3.974,5.16c0.338,3.14,4.088,3.556,4.894,6.421
		c0.288,1.024,2.196,0.658,3.308,1.103c19.033,7.612-6.912,20.451,12.147,24.456c-1.483,0.765-2.98-0.067-4.188,1.154
		c1.354,1.376,3.548-0.034,4.655,1.771c-1.622,0.704-3.449-0.589-4.924,0.974c1.763,1.214,3.763,0.663,5.81,1.094
		c-1.249,1.123-2.61,0.134-3.724,0.838c6.088,9.298,6.11-4.428,5.516,11.766c-0.038,1.032-3.162,4.291-3.76,4.657
		c-6.826,4.183,5.238,30.029-13.748,26.764c-2.054-0.353-8.124,1.613-7.136,6.893c1.258,6.719-2.279,14.746-1.79,17.862
		c1.257,8.013-12.619-6.425,4.813,32.589c3.151,7.051,10.202-1.448,16.503-8.433c10.488-11.624,25.946-22.107,34.263-30.951
		c1.14-1.212,14.642-9.018,16.174-14.429c-12.66-2.657-42.955-74.904-10.804-105.063c21.074-19.769,58.052-46.634,63.249-49.264
		c0.744-0.376,1.371-1.357,1.149-2.638c-8.056-2.074-2.531,3.499-20.757,0.552c-1.053-0.17-0.978-1.06-1.105-1.819
		c3.932-0.759,8.046-0.294,11.322-3.244c-1.277-1.037-2.635-0.25-3.667-0.868c0.24-0.812,1.257-0.22,1.367-0.973
		c-0.807-1.158-2.408-0.801-3.36-1.511c0.243-0.94,1.278-0.584,1.352-1.362c-1.298-1.432-3.722-0.428-5.045-2.09
		c2.399-1.701,6.011-3.569,2.429-6.269c-0.789-0.595-0.159-0.698,0.089-0.893c2.013-1.584-1.571-0.877-0.695-2.065
		c6.78,0.553,4.541-3.996,2.498-5.012c-4.282-2.131-13.334-12.283-13.334-12.283c-8.484-2.921-7.166,0.947-19.551,0.1
		c-12.098-0.828-24.961-6.868-26.443-2.12c-0.312,1-8.943-2.016-8.504-5.585c0.155-1.257-0.631-9.527-5.964-9.611
		c-7.492-0.119-4.139-8.591-4.859-9.592c-7.257-10.076-5.647-2.907-12.015-12.955c-19.864-31.345-16.421-74.889-16.971-101.905
		c-0.077-3.782-1.81-7.301-1.602-11.09c0.2-3.645-0.138-36.938-0.588-37.367c1.42-2.383,0.202-4.553-0.268-6.911
		c-2.079-10.421,3.446-18.589-0.844-19.811c-2.114-0.602-2.455-22.077,7.542-38.13c7.625-12.244,21.513-16.57,22.966-21.491
		c0.33-1.118,1.669-1.246,2.656-1.706c2.648-1.234,4.466-3.467,6.06-5.782c0.427-0.62-0.176-1.946,1.402-1.57
		c0.216-1.596,3.299-1.208,2.45-3.552c-0.286-0.791,1.96-0.566,1.921-2.33c-0.162-7.295,18.9-14.768,19.152-19.593
		c0.26-4.969,3.675-3.518,4.635-4.595c13.334-14.973,21.816-28.724,30.749-30.63c3.014-0.643,96.959-49.076,178.842,70.381
		c3.737,5.451,1.337,6.839,3.705,7.512c2.62,0.744,1.541,3.754,3.302,4.917c-0.767,3.615,0.416,3.394,7.425,14.762
		c0.644,1.044,0.145,2.581,1.94,3.3c1.192,0.478,0.28,2.256,0.807,3.519c0.715,1.714,3.031,0.762,3.107,2.477
		c0.061,1.383,6.793,7.64,6.114,12.089c-0.129,0.843,0.903,2.639,1.497,2.681c2.579,0.183,1.6,1.889,1.837,3.226
		c0,0,9.055,15.239,9.056,15.24c2.917,3.927,0.204,4.223,2.201,5.981c0.001,0.001,52.703,79.814,52.703,79.815
		c0.145,1,2.318,9.236,8.426,8.508c5.099-0.609,2.066,0.934,2.211,1.934c0.128,0.887,3.223,1.287,3.941,1.085
		c1.841-0.517,2.403,1.164,3.599,1.691c1.245,0.549-0.966,1.357-0.313,1.286c2.016-0.22,3.283,1.876,5.325,1.344
		c2.551-0.664,5.098-0.566,7.528,0.673c-0.464,0.234-0.932,0.219-1.383,0.302c-3.982,0.729,0.047,0.456-2.515,2.949
		c1.582,1.304,0.745,3.188,1.153,4.771c0.88,3.419,3.598-0.204,4.875,0.763c-0.413,5.512-4.48,1.317-6.377,5.841
		c2.182,0.117,2.446,2.365,4.01,3.106c3.344,1.585,1.65,6.607,6.238,7.203c4.458,0.579,1.826,5.649,3.51,5.839
		c0.715,0.081,0.534,0.828-0.002,0.8c-4.385-0.233-0.515,9.35-1.118,10.639c-2.285,4.885,2.227,6.482,1.407,11.045
		c-0.806,4.485-0.529,4.955,3.608,16.021c3.307,8.845-4.594,10.69,2.653,21.603c28.904,43.525,59.541,107.932,60.018,108.996
		c6.815,15.201,16.887,26.6,29.135,50.74c55.612,109.607,44.67,116.598,25.524,132.388c-26.608,21.944-18.723,17.194-35.191,32.067
		c-13.789,12.453-19.66,8.813-36.056,22.709c-49.334,41.81-90.87,47.35-80.581,60.752c2.101,2.737,4.163,5.571,5.145,9.03
		c0.851,2.997,4.101,1.724,6.585,6.528c9.391,18.16,29.145,86.48,25.964,90.038c-1.306,1.46-0.856,1.704,0.228,18.578
		c0.433,6.745,5.151,2.88-0.053,26.536c-10.814,49.146,5.731,75.606,8.012,159.886c0,0.003,17.735,526.508,17.736,526.508
		C1072.833,1645.063,1072.94,1648.775,1074.844,1652z M467.389,774.726c-28.113,11.84,13.271,17.527,21.304,37.515
		c1.683,4.187,6.788,6.665,8.553,12.902c0.226,0.797,9.035,19.37,9.219,19.693c0.001,0.001-0.24,3.489,2.447,7.441
		c4.329,6.367,5.414,19.066,5.05,20.243c-2.17,7.009,6.104,11.138,4.578,20.084c-0.176,1.029,0.152,1.882,0.727,2.718
		c2.404,3.5,0.74,10.459,2.639,12.568c3.095,3.436,4.755,7.488,3.863,12.278c-0.479,2.575,1.17,2.099,1.809,6.549
		c1.426,9.932,4.794,8.909,6.069,13.924c1.971,7.754,3.686,5.125,7.768,11.322c1.349,2.049,3.044,2.775,4.922,1.552
		c12.72-8.287,83.85-52.603,74.047-63.002c-41.689-44.222-41.633-102.79-37.657-116.19c1.693-5.704-4.645-3.909-14.698-5.253
		c-7.402-0.989-35.02-26.348-35.93-27.348C519.524,727.892,506.767,758.143,467.389,774.726z M989.24,696.533
		c-8.044-1.181-2.55,8.913-12.019,6.692c-3.129-0.734-1.987-20.12-2.911-20.521c-3.76-1.634,0.454-6.18-2.259-7.179
		c-6.675-2.456-9.524-9.087-10.333-4.973c-3.578,18.218-3.625,40.715,13.663,70.271c6.988,11.947,70.889-61.726,78.849-70.457
		c17.724-19.442,25.548-12.25,9.582-31.15c-21.132-25.016-11.56-26.444-44.648-3.986c-27.768,18.847-32.967,13.784-29.568,54.925
		C989.784,692.411,987.655,694.11,989.24,696.533z M715.883,947.824c-0.733-2.885,1.251-5.941-1.63-6.493
		c-39.288-7.523-6.016-25.953-61.611,30.01c-76.857,77.37-71.788,67.526-68.133,73.393c10.816,17.36,11.78,27.187,31.448,7.73
		c1.809-1.79,54.064-48.14,58.165-49.041c1.978-2.914,5.784-3.755,7.636-6.947c1.789-3.084,2.663-2.425,6.452-4.965
		c9.154-6.138,26.479-26.459,26.652-28.956C715.205,957.628,715.545,952.7,715.883,947.824z M591.938,743.856
		c5.104-2.054,12.776-14.302,6.228-11.358C594.403,734.189,588.234,743.417,591.938,743.856z M625.583,687.915
		c0.273-3.308-15.016-1.584-10.713,1.585C618.744,692.352,625.206,692.484,625.583,687.915z"/>
</g>
</svg>
