<?xml version="1.0" encoding="utf-8"?>

<!DOCTYPE svg PUBLIC "-//W3C//DTD SVG 1.1//EN" "http://www.w3.org/Graphics/SVG/1.1/DTD/svg11.dtd">
<svg version="1.1" id="Layer_1" xmlns="http://www.w3.org/2000/svg" xmlns:xlink="http://www.w3.org/1999/xlink" x="0px" y="0px"
	 viewBox="0 0 1786.91 1646.988" enable-background="new 0 0 1786.91 1646.988" xml:space="preserve">
<g>
	<path d="M532.535,500.283c0.104-1.093,0.644-2.912,0.239-3.155c-2.045-1.225-4.809-3.339-6.448-2.742
		c-4.149,1.511-8.757-0.61-12.348,1.648c-3.53,2.22-6.441-2.329-9.585-0.089c-6.832,4.867-11.514,10.222-14.034,3.174
		c-1.519-4.246-3.459-6.826-8.497-5.953c-1.643,0.285-4.902-6.174-3.765-7.57c2.625-3.224,3.237-7.628,7.11-10.233
		c9.206-6.192-8.653-6.23-6.692-18.481c0.17-1.06-0.108-2.657-1.318-2.803c-5.231-0.632-5.574-5.065-6.512-8.61
		c-1.002-3.787-3.839-6.165-5.991-8.905c-12.781-16.275-5.842-19.361-10.035-38.382c-2.381-10.798,0.098-10.72,8.269-16.707
		c0.269-2.643-1.817-3.413-3.472-4.168c-3.099-1.413-17.168-9.93-13.695-22.273c1.35-4.799,1.72-9.653,4.663-14.091
		c6.547-9.876-11.991-16.78-1.773-33.085c1.307-2.085,1.684-4.731,2.685-7.034c3.128-7.193,3.282-7.949-3.363-10.929
		c-8.834-3.961-8.477-15.153-15.272-16.617c-6.393-1.378-1.134-22.862-8.525-33.831c-2.545-3.777-1.592-4.303,2.835-7.267
		c13.785-9.23,15.787-9.272,15.818-11.57c0.077-5.685,3.945-10.748,1.733-16.956c-2.242-6.293-3.169-13.064-4.546-19.652
		c-1.576-7.542-1.071-8.544,5.633-11.844c11.362-5.592,6.778-10.511,11.215-16.494c4.774-6.437,5.444-16.349,0.86-22.404
		c-4.206-5.557,5.158-12.219,10.438-26.122c2.693-7.091,25.16-8.193,26.181-14.786c1.243-8.024,7.336-13.705,10.103-20.994
		c4.566-12.025,14.153-18.912,25.113-24.339c1.271-0.629,2.945-1.027,3.348-2.342c2.624-8.557,32.162-13.381,49.71-18.398
		c13.064-3.736,27.084-5.273,38.786,5.657c4.213,3.935,10.589,2.425,18.004,9.116c5.708,5.151,6.101-2.611,11.099,2.239
		c14.887,14.446,20.997-4.252,37.5,8.136c10.94,8.213,3.978-1.093,21.829,8.929c5.839,3.278,9.894,7.573,12.137,13.361
		c6.179,15.953,15.797,20.433,11.811,51.76c-2.204,17.321-19.209,8.019-18.622,26.376c0.163,5.097-0.87,20.729-11.299,29.798
		c-15.392,13.386,10.26,28.959-1.318,40.981c-6.08,6.314-10.132,13.985-14.757,21.281c-7.358,11.607,5.222,20.85-13.603,26.975
		c-14.261,4.64-28.838-1.869-30.783,9.247c-0.589,3.366,0.395,5.844,3.27,7.972c8.334,6.169,16.22,12.913,25.912,17.106
		c8.844,3.827,20.79,14.872,21.608,25.391c0.65,8.347,8.162,0.785,14.381,14.571c8.602,19.069,65.492,62.898,79.891,73.776
		c24.184,18.27,29.495,10.696,86.972,47.667c83.219,53.529,70.68,27.502,141.675,89.454c3.153,2.751,6.739,5.037,10.275,7.305
		c4.257,2.73,5.919-6.421,3.793-9.704c-2.656-4.1-1.404-7.606,2.001-10.399c8.036-6.591,13.723-15.584,22.244-21.642
		c2.733-1.943,3.456-4.515,2.337-7.358c-3.645-9.26,22.165-25.275,28.864-35.701c1.586-2.468,4.645-4.001,7.057-5.925
		c5.477-4.369,5.657-4.533,2.937-11.153c-1.388-3.378-1.912-6.446,0.547-9.452c0.698-0.853,1.508-2.217,2.331-2.265
		c5.577-0.327,7.673-4.985,10.753-8.359c3.612-3.957,8.621-7.423,12.971-4.262c2.791,2.028,6.158,2.674,9.403,3.544
		c8.95,2.4,3.649-5.554,16.685-0.83c9.223,3.342,5.442-0.336,16.255,0.281c24.991,1.425,33.704,15.844,45.786,18.798
		c1.255,0.307,3.02,1.409,3.274,2.455c1.511,6.208,8.272,8.52,10.271,14.274c0.177,0.509,0.477,1.312,0.826,1.373
		c7.327,1.281,4.21,7.022,7.59,15.964c5.603,14.828,23.331,7.635,19.964,26.31c-1.816,10.072-1.08,52.925-18.757,66.37
		c-13.235,10.066-18.474,29.15-19.17,30.511c-1.121,2.191,5.95,33.412,25.094,39.901c6.364,2.157,14.701,20.776,15.859,26.983
		c1.228,6.581,5.693,11.485,10.274,16.076c22.581,22.63,35.191,47.023,37.069,54.373c4.038,15.809,12.082,24.657,13.045,30.848
		c3.657,23.526,8.289,46.93,9.259,70.801c0.458,11.289,3.118,7.475,3.755,15.284c1.399,17.141,10.663,21.999,7.117,30.473
		c-2.927,6.997,9.017,9.312,8.906,21.637c-0.017,1.892,1.277,3.658,2.71,5.106c8.073,8.159,12.999,17.781,15.483,29.127
		c1.465,6.691,5.905,12.678,7.934,19.311c5.93,19.384,20.96,27.053,28.401,49.044c3.087,9.124,9.205,21.865,16.723,27.701
		c26.601,20.648,22.567,43.599,23.619,46.011c6.117,14.02,4.568,29.21,6.773,43.823c2.953,19.57,6.117,21.071-1.026,21.85
		c-10.767,1.174-18.241-1.781-16.829,10.45c3.547,30.713-1.606,19.437-15.368,61.659c-7.221,22.153-20.691,34.44-18.902,44.145
		c2.86,15.521-37.545,60.12-35.849,74.216c0.722,5.999-2.631,11.877-4.177,17.813c-6.259,24.031-3.302,21.03-9.525,37.363
		c-0.894,2.346-4.911,21.654,3.867,16.616c6.708-3.851,13.982-5.622,21.501-6.856c18.873-3.098,15.149-13.578,33.001-12.858
		c13.245,0.533,15.893-2.444,38.481-3.649c13.401-0.715,27.069-0.687,40.061-3.542c12.72-2.795,65.044-5.87,89.613-11.852
		c1.008-0.245,97.752-26.449,110.682-20.311c12.117,5.752,21.093-2.556,44.244,5.74c20.858,7.474,34.188,5.725,33.33,22.199
		c-0.477,9.153-0.469,18.303-2.516,27.328c-0.945,4.168,1.494,8.116,1.474,12.426c-0.122,26.462-5.749,39.607-0.161,55.427
		c4.836,13.687,0.691,21.606-4.553,50.455c-2.98,16.397-31.729,64.017-59.653,80.828c-8.028,4.833-32.441-5.622-24.956-24.53
		c9.686-24.468,9.754-11.921,16.614-44.48c0.247-1.174-2.303-29.045-29.781-38.855c-38.893-13.885-112.392,11.849-141.902,17.501
		c-71.512,13.694-126.252,8.457-164.54,12.357c-6.288,0.641-12.254,3.532-18.651,4.257c-1.045,0.118-2.33,0.689-2.959,1.482
		c-4.885,6.162-12.964,7.736-18.446,12.998c-0.201,0.193-0.429,0.44-0.678,0.488c-9.476,1.841-18.172,7.148-28.415,5.729
		c-9.115-1.263-18.029-1.432-25.596,5.755c-6.064,5.759-13.732,9.714-19,16.485c-1.369,1.76-3.45,2.838-5.674,3.46
		c-8.766,2.45-3.866,6.973-20.084,5.798c-4.511-0.327-8.68,1.269-13.241,1.156c-26.991-0.664-44.947-11.911-64.037-13.126
		c-6.864-0.437-13.613-2.924-20.15-5.622c-4.717-1.947-6.288-5.076-5.871-9.748c3.643-40.875,36.553-22.947,72.128-53.197
		c4.963-4.22,8.125-10.585,11.973-16.071c2.955-4.213-9.326-19.2-7.098-33.855c-6.777-1.116-13.181,0.594-19.436-1.043
		c-30.999-8.111-43.064-26.007-28.904,7.992c-6.375,4.156-13.011,8.517-19.542,12.998c-3.754,2.576-5.254,8.357-11.126,7.98
		c-0.932-0.06-1.169,1.087-0.911,1.935c2.373,7.805-8.226,3.41-14.979,6.065c-12.315,4.842-9.964,20.942-19.083,23.299
		c-2.941,0.76-7.991,8.474-9.295,9.482c-5.537,4.282-8.089,8.74-4.993,16.301c3.954,9.656-11.79,20.884-20.197,18.572
		c-1.68-0.462-3.507,0.023-4.743,1.213c-7.83,7.534-18.307,11.141-26.559,18.052c-11.602,9.718-30.473-2.399-37.881,2.77
		c-2.972,2.074-5.939,1.49-8.362-2.249c-5.276-8.14-6.203-2.544-22.496-0.513c-4.317,0.538-8.865,1.155-10.495,6.775
		c-0.838,2.889-3.377,2.819-4.406-0.197c-0.654-1.916-1.626-3.603-3.019-3.066c-5.353,2.061-11.586,1.2-16.218,5.923
		c-5.48,5.587-11.835,10.129-20.207,10.627c-5.167,0.307-12.272,7.923-23.803,5.281c-4.208-0.964-7.597,0.783-11.34,1.183
		c-8.878,0.949-17.805-0.513-26.696,1.142c-42.634,7.936-15.986-9.506-32.937-14.052c-13.864-3.719-68.308-15.886-74.771-3.198
		c-0.786,1.542-2.317,2.872-3.957,2.889c-8.567,0.087-17.143,3.251-25.712-0.003c-2.319-0.88-4.586-2.091-7.015,0.118
		c-5.421,4.93-12.173,3.833-17.185,0.869c-23.567-13.936-73.954,6.248-79.637-0.758c-4.072-5.018-9.935-7.308-15.437-9.987
		c-4.547-2.214-8.524-5.852-13.224-7.105c-4.704-1.254-9.823,1.119-14.953,0.898c-20.028-0.864-14.484-2.865-32.333,1.729
		c-13.058,3.36-6.628-5.157-22.296-7.933c-16.121-2.857-32.328-1.481-48.491-1.608c-24.567-0.193-16.771,20.298-63.845,11.227
		c-20.353-3.922-23.337-0.077-28.025-5.877c-2.809-3.475-6.317-6.378-8.446-10.423c-1.435-2.725-3.702-4.109-6.803-4.152
		c-5.02-0.069-9.97-1.755-15.068-0.398c-7.326,1.95-11.988-4.671-14.787-4.626c-8.275,0.133-16.188-2.238-24.307-3.003
		c-4.987-0.471-9.929-0.286-14.657-2.757c-5.465-2.856-11.987-2.891-17.52-5.784c-8.046,2.254-15.915-0.757-23.815-0.734
		c-8.892,0.026-17.767,2.08-26.671,3.062c-6.212,0.686-5.916,0.494-5.756-5.437c0.495-18.295,7.942-34.098,8.084-60.543
		c0.086-15.935-12.477-8.466-18.8-10.607c-15.351-5.198-20.722-0.456-43.946-5.733c-7.107-1.615-14.337-2.574-21.591-2.151
		c-4.133,0.241-7.664-1.474-11.479-2.174c-23.898-4.388-28.26,0.94-36.576-4.252c-3.671-2.293-8.303,1.229-11.582-0.57
		c-3.831-2.102-9.371-3.229-9.595-8.402c-0.508-11.754,11.397-12.75,10.685-17.187c-0.34-2.12-2.544-2.547-4.518-2.906
		c-5.312-0.966-9.737-3.95-14.407-6.409c-3.057-1.61-4.244-3.287-1.932-6.529c2.585-3.625,1.025-8.633,4.728-12.383
		c2.929-2.966,3.08-8.103,5.039-12.137c5.541-11.414,4.446-5.635,13.667-41.729c8.394-32.856,13.923-27.141,24.286-57.8
		c5.248-15.525,13.697-29.333,21.981-43.238c72.651-121.95,132.046-251.358,205.91-372.224c2.952-4.831,4.524-10.207,7.028-15.206
		c12.156-24.269,17.627-24.606,43.935-73.128c5.92-10.919,24.226-35.73,31.521-52.684c2.724-6.332,33.573-50.95,39.97-54.269
		c0.927-0.481,1.979-1.393,2.268-2.327c4.402-14.233,20.172-21.649,26.023-33.725c5.811-11.993,9.454-8.066,21.191-26.604
		c7.263-11.471,12.996-8.937,21.029-21.267c3.151-4.837,6.668-9.549,11.241-13.102c9.292-7.219,14.57-17.591,21.305-26.765
		c10.28-14.002,13.331-4.591,16.75-16.973c5.089-18.434-2.959-36.813-3.959-37.599c-3.522-2.768-5.141-6.358-5.883-10.629
		c-0.15-0.865-1.539-1.515-2.357-2.264L532.535,500.283z M1189.632,1309.221c-5.763-1.977-3.182-1.485-3.521-11.021
		c-0.297-8.341-0.986-9.127-8.956-9.662c-9.335-0.627-18.673,1.509-28.031,0.016c-2.867-0.457-5.046,2.208-8.01,1.038
		c-7.175-2.833-14.832-2.446-22.321-2.8c-5.099-0.241-10.268-2.469-15.709-0.202c2.082,4.642-3.437-2.143,23.65,19.855
		c10.365,8.417,22.699,14.349,31.396,24.928c5.699,6.933,6.349-1.706,18.699,4.332c6.514,3.185,13.148,6.21,18.369,11.541
		c1.197,1.222,2.407,3.256,4.961,2.217c-0.221-4.775-1.257-9.327-3.071-13.74c-1.715-4.174-0.191-9.08-4.841-12.833
		c-3.498-2.822,1.862-9.21-2.281-13.163c-0.199-0.19-0.332-0.45-0.496-0.678l0.322-0.115L1189.632,1309.221z M975.698,873.653
		c-22.446,3.051-58.335,8.773-79.361,9.319c-6.425,0.167-2.64,4.359,6.041,25.293c1.319,3.18,4.476,5.27,5.615,8.045
		c15.66,38.153,78.013,208.408,87.492,223.269c0.638,1,3.204,2.133,3.51-0.536c0.796-6.925-2.217-14.267,9.825-16.496
		c14.062-2.603,27.28-8.398,41.388-10.54c16.396-2.489,10.52-51.714,13.688-66.634c9.887-46.57,8.497-50.05,2.71-69.305
		c-2.987-9.936-38.815-14.277-39.227-34.273c-0.157-7.625,0.165-15.312,2.726-22.459c9.631-26.873,1.095-44.113,0.903-47.618
		C1030.605,864.372,1029.796,866.3,975.698,873.653z M737.731,482.544c-5.236,14.965-6.824,31.079-4.935,43.93
		c0.354,2.412,1.358,3.471,3.763,3.409c22.652-0.591,35.943,14.541,36.911,34.118c2.07,41.888-3.539,54.843,8.814,68.345
		c2.527,2.763,5.934,6.747,3.944,11.328c-3.249,7.477,12.951,32.369,17.618,38.618c3.936,5.27,2.754,7.361,6.381,14.529
		c31.924,63.093,25.234,61.445,33.504,69.641c3.472-4.008,3.839-8.571,3.734-13.404c-0.38-17.362,3.173-5.3,5.402-24.222
		c1.571-13.335,0.163-26.142-2.727-39.017c-1.123-5.006-0.83-5.475,3.992-7.561c30.413-13.158,36.614-19.104,40.318-30.442
		c0.523-1.602,1.355-2.991,0.91-4.774c-2.01-8.055,3.337-14.606,4.632-21.998c0.622-3.551,5.966-3.467,7.497-6.405
		c5.244-10.064,15.39-4.044,28.538-15.755c8.91-7.937,15.728-18.463,27.664-22.839c11.599-4.253,11.169-26.309-12.159-26.004
		c-56.628,0.742-146.281-27.993-176.694-50.61C763.517,495.012,749.628,491.479,737.731,482.544z M943.207,755.692
		c20.84-5.344,17.938-4.214,24.743-7.919c12.603-6.863,23.983-16.312,39.305-17.297c3.348-0.215,6.314-2.393,10.321-1.719
		c2.774,0.466,6.444-1.307,7.143-5.645c4.466-27.694,13.337-47.633,34.035-65.677c3.897-3.397,3.799-5.353-0.567-7.716
		c-8.325-4.507-16.156-10.341-26.006-11.302c-6.524-0.636-14.488-12.18-21.689,1.926c-2.986,5.85-5.316,13.604-14.642,12.369
		c-4.706-0.623-3.983,11.834-16.375,4.729c-12.2-6.995-14.018,8.134-16.897,9.842c-4.819,2.859,0.307,5.453-1.89,20.856
		c-2.216,15.541-7.661,30.423-9.099,46.125C950.524,745.904,941.233,745.646,943.207,755.692z"/>
	<polygon points="532.375,500.096 532.172,500.288 532.535,500.283 	"/>
	<polygon points="984.55,1598.048 985.01,1597.919 984.935,1598.331 	"/>
</g>
</svg>
